<?xml version="1.0" standalone="no"?>
<!DOCTYPE svg PUBLIC "-//W3C//DTD SVG 20010904//EN"
 "http://www.w3.org/TR/2001/REC-SVG-20010904/DTD/svg10.dtd">
<svg version="1.0" xmlns="http://www.w3.org/2000/svg"
 width="300px" height="300px" viewBox="0 0 195.000000 195.000000"
 preserveAspectRatio="xMidYMid meet">
<metadata>
Created by potrace 1.10, written by Peter Selinger 2001-2011
</metadata>
<g transform="translate(-350.000000,545.000000) scale(0.10000,-0.100000)"
fill="#FFFFFF" stroke="none">
<path d="M4223 5272 c-10 -4 -17 -48 -23 -97 -19 -144 -12 -131 -81 -139 -60
-7 -63 -7 -90 24 -16 17 -29 35 -29 39 0 12 -131 104 -138 96 -4 -3 -10 -59
-13 -123 -11 -191 -29 -258 -87 -311 -38 -35 -153 -113 -184 -124 -23 -8 -23
-72 1 -147 l17 -55 49 3 c28 2 68 8 90 13 22 4 64 9 94 9 30 0 111 7 180 14
225 26 364 39 441 40 l75 1 -3 -60 c-5 -74 -28 -166 -44 -177 -7 -5 -22 -6
-33 -3 -11 2 -27 5 -37 5 -9 0 -38 27 -64 59 -40 49 -51 58 -66 50 -10 -5 -21
-22 -24 -37 -4 -15 -14 -38 -23 -51 -15 -23 -16 -23 -155 -17 -78 3 -162 8
-188 12 -73 10 -78 5 -62 -57 8 -29 19 -58 24 -63 6 -6 46 -11 89 -12 43 -1
83 -4 90 -8 6 -4 11 -31 11 -59 0 -29 5 -70 10 -92 5 -22 14 -90 19 -152 6
-64 17 -125 26 -142 15 -29 19 -31 75 -31 88 0 103 9 123 72 9 30 17 64 17 76
0 11 7 48 16 82 19 74 16 92 -15 100 -30 7 -38 25 -15 34 25 10 102 -4 119
-20 14 -15 16 -23 35 -204 6 -58 15 -112 19 -120 6 -11 28 -16 78 -18 68 -3
71 -2 97 28 18 23 26 43 26 71 0 22 4 49 10 59 5 10 14 49 19 86 14 96 20 100
170 108 l123 7 32 -34 c30 -32 47 -71 66 -147 16 -64 41 -125 62 -147 18 -19
31 -22 80 -21 87 2 92 11 79 140 -11 96 -28 199 -52 308 -6 25 -14 65 -19 90
-4 25 -12 56 -18 70 -5 14 -17 52 -27 85 -9 33 -23 74 -30 91 -8 18 -10 36 -4
46 5 8 46 40 91 71 46 31 100 72 122 90 38 32 39 35 44 109 5 86 -7 134 -65
256 -23 48 -40 72 -52 72 -16 0 -56 -73 -83 -153 -6 -18 -17 -41 -25 -52 -7
-11 -13 -25 -13 -31 0 -11 -32 -85 -50 -114 -5 -8 -20 -41 -34 -72 -15 -31
-30 -59 -34 -62 -5 -3 -37 -1 -73 4 -35 5 -129 14 -209 20 -88 6 -149 15 -156
23 -7 6 -21 38 -33 69 -11 32 -25 66 -30 75 -5 10 -19 40 -32 66 -37 74 -51
102 -59 107 -3 3 -17 23 -30 45 -51 83 -199 239 -217 227z m64 -344 c41 -22
79 -70 109 -138 4 -8 13 -23 21 -32 8 -9 13 -26 11 -38 -6 -44 -191 -130 -278
-130 -87 0 -178 53 -230 134 -37 56 -35 69 25 135 86 95 234 125 342 69z
m-595 -294 c3 -3 2 -17 -3 -32 -5 -15 -11 -39 -14 -54 -3 -16 -12 -28 -20 -28
-15 0 -55 55 -55 75 0 22 77 55 92 39z"/>
<path d="M4103 4887 c-41 -23 -63 -62 -63 -114 0 -43 4 -53 38 -86 46 -45 87
-55 133 -33 51 25 74 62 74 121 0 64 -25 98 -82 114 -54 14 -72 14 -100 -2z"/>
</g>
</svg>